<?xml version="1.0" encoding="iso-8859-1"?>
<!-- Generator: Adobe Illustrator 19.0.0, SVG Export Plug-In . SVG Version: 6.00 Build 0)  -->
<svg version="1.1" id="Layer_1" xmlns="http://www.w3.org/2000/svg" xmlns:xlink="http://www.w3.org/1999/xlink" x="0px" y="0px"
	 viewBox="0 0 512 512" style="enable-background:new 0 0 512 512;" xml:space="preserve">
<path style="fill:#F8A805;" d="M324.085,470.442h-136.17c-97.766,0-177.021-79.255-177.021-177.021l0,0
	c0-97.766,79.255-177.021,177.021-177.021h136.17c97.766,0,177.021,79.255,177.021,177.021l0,0
	C501.106,391.186,421.851,470.442,324.085,470.442z"/>
<path style="fill:#3EAF64;" d="M229.318,118.678c1.544-26.743,5.902-34.431,7.535-59.224c0.663-10.072,9.053-17.896,19.148-17.896
	h18.533c0.325,40.324,6.286,44.848,8.15,77.121c0.588,10.181-7.558,18.742-17.757,18.742h-17.85
	C236.876,137.422,228.73,128.861,229.318,118.678z"/>
<g>
	<polygon style="fill:#E87078;" points="221.14,317.074 256,256.695 290.86,317.074 	"/>
	<polygon style="fill:#E87078;" points="117.288,201.552 199.353,271.271 95.926,271.491 	"/>
	<polygon style="fill:#E87078;" points="394.712,201.552 312.647,271.271 416.074,271.491 	"/>
	<path style="fill:#E87078;" d="M230.4,360.648v11.569h-43.574v-11.569H124.46l0,0c0,30.683,24.873,55.557,55.557,55.557h102.31
		v-19.659h43.574v19.659h6.082c30.684,0,55.557-24.873,55.557-55.557l0,0H230.4z"/>
</g>
<g>
	<path style="fill:#231F20;" d="M221.14,327.968h69.719c3.891,0,7.488-2.076,9.434-5.447c1.946-3.37,1.946-7.523,0-10.894
		l-34.86-60.379c-1.946-3.37-5.543-5.447-9.434-5.447c-3.891,0-7.488,2.076-9.434,5.447l-34.86,60.379
		c-1.946,3.37-1.946,7.523,0,10.894C213.652,325.891,217.249,327.968,221.14,327.968z M256,278.482l15.992,27.698h-31.984
		L256,278.482z"/>
	<path style="fill:#231F20;" d="M209.582,275.017c1.57-4.286,0.302-9.094-3.175-12.048l-82.065-69.719
		c-2.793-2.375-6.592-3.182-10.117-2.153c-3.519,1.032-6.283,3.765-7.354,7.271l-21.362,69.94c-1.011,3.306-0.39,6.897,1.669,9.672
		c2.056,2.77,5.3,4.403,8.749,4.403c0.008,0,0.016,0,0.023,0l103.427-0.221C203.939,282.154,208.013,279.301,209.582,275.017z
		 M110.653,260.565l12.213-39.983l46.913,39.856L110.653,260.565z"/>
	<path style="fill:#231F20;" d="M405.129,198.368c-1.071-3.508-3.836-6.241-7.354-7.271c-3.524-1.033-7.324-0.223-10.117,2.153
		l-82.065,69.719c-3.477,2.954-4.745,7.763-3.176,12.048c1.569,4.284,5.643,7.137,10.205,7.147l103.427,0.221
		c0.008,0,0.016,0,0.023,0c3.449,0,6.694-1.633,8.749-4.403c2.06-2.777,2.68-6.366,1.669-9.672L405.129,198.368z M342.22,260.44
		l46.913-39.856l12.213,39.983L342.22,260.44z"/>
	<path style="fill:#231F20;" d="M387.54,349.754H230.4c-6.015,0-10.894,4.877-10.894,10.894v0.677h-21.787v-0.677
		c0-2.889-1.148-5.66-3.191-7.703c-2.044-2.043-4.814-3.191-7.703-3.191H124.46c-6.015,0-10.894,4.877-10.894,10.894
		c0,36.641,29.809,66.451,66.451,66.451h102.31c6.015,0,10.894-4.877,10.894-10.894v-8.765h21.787v8.765
		c0,6.017,4.878,10.894,10.894,10.894h6.082c36.642,0,66.451-29.809,66.451-66.451C398.434,354.632,393.556,349.754,387.54,349.754z
		 M336.795,405.054v-8.508c0-6.017-4.878-10.894-10.894-10.894h-43.574c-6.015,0-10.894,4.877-10.894,10.894v8.765h-91.416
		c-20.871,0-38.445-14.39-43.321-33.77h39.236v0.677c0,6.017,4.878,10.894,10.894,10.894H230.4c6.015,0,10.894-4.877,10.894-10.894
		v-0.677h134.01C370.808,389.413,355.515,403.041,336.795,405.054z"/>
	<path style="fill:#231F20;" d="M324.085,105.506h-31.56c-0.854-7.842-1.947-13.99-3.015-19.993
		c-2.009-11.289-3.906-21.952-4.084-44.043c-0.049-5.982-4.912-10.805-10.894-10.805H256c-15.795,0-28.981,12.332-30.018,28.074
		c-0.747,11.345-2.081,18.839-3.492,26.775c-1.068,6.002-2.16,12.15-3.015,19.992h-31.559C84.298,105.506,0,189.804,0,293.421
		s84.298,187.915,187.915,187.915h136.17C427.702,481.336,512,397.037,512,293.421S427.702,105.506,324.085,105.506z
		 M240.193,119.307c0.763-13.213,2.211-21.356,3.745-29.976c1.453-8.169,2.957-16.615,3.783-29.16
		c0.285-4.329,3.922-7.719,8.278-7.719h7.88c0.65,17.046,2.439,27.102,4.18,36.879c1.534,8.62,2.983,16.763,3.745,29.977
		c0.147,2.536-1.096,4.253-1.849,5.051c-1.321,1.4-3.108,2.17-5.032,2.17h-17.851c-1.925,0-3.71-0.771-5.032-2.17
		C241.289,123.56,240.046,121.843,240.193,119.307L240.193,119.307z M324.085,459.548h-136.17
		c-91.603,0-166.128-74.525-166.128-166.128s74.524-166.128,166.128-166.128h29.6c-15.914,5.222-38.888,16.644-50.333,40.712
		c-2.583,5.434-0.273,11.933,5.16,14.516c1.51,0.719,3.103,1.059,4.67,1.059c4.073,0,7.98-2.295,9.846-6.218
		c10.851-22.82,38.498-30.193,47.498-32.028c3.924,1.937,8.279,2.983,12.716,2.983h17.851c4.313,0,8.545-0.992,12.382-2.826
		c9.711,2.083,36.185,9.665,46.745,31.871c1.866,3.924,5.773,6.218,9.846,6.218c1.568,0,3.16-0.341,4.67-1.059
		c5.434-2.584,7.743-9.082,5.16-14.516c-11.44-24.059-34.406-35.487-50.319-40.712h30.676c91.603,0,166.128,74.524,166.128,166.128
		S415.688,459.548,324.085,459.548z"/>
</g>
<g>
</g>
<g>
</g>
<g>
</g>
<g>
</g>
<g>
</g>
<g>
</g>
<g>
</g>
<g>
</g>
<g>
</g>
<g>
</g>
<g>
</g>
<g>
</g>
<g>
</g>
<g>
</g>
<g>
</g>
</svg>
